<?xml version="1.0" encoding="utf-8"?>
<!-- Svg Vector Icons : http://www.onlinewebfonts.com/icon -->
<!DOCTYPE svg PUBLIC "-//W3C//DTD SVG 1.1//EN" "http://www.w3.org/Graphics/SVG/1.1/DTD/svg11.dtd">
<svg version="1.1" xmlns="http://www.w3.org/2000/svg" xmlns:xlink="http://www.w3.org/1999/xlink" x="0px" y="0px" viewBox="0 0 1000 1000" enable-background="new 0 0 1000 1000" xml:space="preserve">
<metadata> Svg Vector Icons : http://www.onlinewebfonts.com/icon </metadata>
<g><g transform="translate(0.000000,512.000000) scale(0.100000,-0.100000)"><path d="M1247.7,5010.6c-284.1-51.8-518.2-178.5-740.9-401.1c-182.3-184.3-282.1-341.6-358.9-573.9c-42.2-126.7-48-182.3-48-387.7c0-274.5,38.4-429.9,168.9-666c97.9-172.7,360.8-435.7,533.6-533.6c234.2-128.6,391.5-168.9,666-170.8c222.6,0,253.3,5.8,412.7,61.4c96,34.6,182.3,65.3,195.8,67.2c19.2,3.8,888.6-1293.6,888.6-1326.2c0-7.7-78.7-53.8-174.7-101.7l-176.6-86.4l-174.7,174.7c-193.9,195.8-345.5,291.7-583.5,370.4c-126.7,42.2-182.3,48-387.7,48c-274.5,0-429.9-38.4-666-168.9c-172.7-97.9-435.7-360.8-533.6-533.6C138.4,546.3,100,390.9,100,116.4c0-274.5,38.4-429.9,168.9-666c97.9-172.7,360.8-435.7,533.6-533.6c236.1-130.5,391.5-168.9,666-168.9c207.3,0,261,5.8,393.5,49.9c228.4,74.9,381.9,172.7,579.6,370.4l176.6,174.7l172.7-88.3c96-48,174.7-94,174.7-101.7c0-32.6-869.4-1330.1-890.6-1326.2c-11.5,1.9-97.9,32.6-193.9,67.2c-159.3,55.7-190,61.4-412.7,61.4c-274.5-1.9-431.8-42.2-666-170.8c-172.7-97.9-435.7-360.8-533.6-533.6c-130.5-236.1-168.9-391.5-168.9-666s38.4-429.9,168.9-666c97.9-172.7,360.8-435.7,533.6-533.6c236.1-130.5,391.5-168.9,666-168.9c207.3,0,261,5.8,393.5,49.9c222.6,72.9,381.9,174.7,566.2,358.9c184.3,184.2,286,343.6,358.9,566.2c42.2,130.5,49.9,190,51.8,383.9c0,168.9-7.7,261-32.6,343.6c-19.2,61.4-30.7,115.2-26.9,119c3.8,5.8,243.8,120.9,531.7,259.1l522.1,251.4l28.8-46.1c72.9-107.5,349.3-358.9,472.1-428c234.2-130.5,391.5-168.9,666-168.9c207.3,0,261,5.8,393.5,49.9c222.7,72.9,381.9,174.7,566.2,358.9c184.2,184.2,286,343.6,358.9,566.2c44.1,132.4,49.9,186.2,49.9,393.5c0,191.9-7.7,264.9-40.3,364.7c-23,67.2-34.5,130.5-26.9,138.2c7.7,5.8,253.4,138.2,547,289.8l533.6,278.3l176.6-176.6c195.8-197.7,345.5-291.7,585.4-372.3c128.6-42.2,180.4-49.9,387.7-49.9c207.3,1.9,261,7.7,393.5,51.8c222.6,72.9,382,174.6,566.2,358.9c184.2,184.2,286,343.6,358.9,566.2c44.1,132.4,49.9,186.2,49.9,393.5c0,274.5-38.4,429.9-168.9,666c-97.9,172.7-360.8,435.7-533.6,533.6c-234.2,128.6-391.5,168.9-666,170.8c-207.3,0-259.1-7.7-387.7-49.9c-239.9-80.6-389.6-174.6-585.4-370.4L7381.9,888l-533.6,278.3c-293.7,153.5-539.3,284.1-547,291.7c-7.7,5.8,3.8,69.1,26.9,136.3c63.3,191.9,59.5,552.8-7.7,752.4c-76.8,232.2-176.6,391.5-358.9,573.9c-184.3,182.3-341.7,282.1-573.9,358.9c-126.7,40.3-184.2,48-387.7,49.9c-207.3,0-259.1-7.7-387.7-49.9c-226.5-74.9-391.5-176.6-564.3-349.3c-86.4-86.4-168.9-174.7-184.3-199.6l-30.7-44.2L3311,2935.9c-287.9,138.2-527.8,253.4-531.7,259.1c-3.8,3.8,7.7,57.6,26.9,119c53.7,178.5,46.1,529.7-17.3,721.7c-76.8,232.2-176.6,389.6-358.9,573.9c-184.3,184.3-345.5,284.1-573.9,357C1691.1,5018.3,1405.1,5039.4,1247.7,5010.6z M1691.1,4701.6c280.2-49.9,585.4-268.7,714-512.5c107.5-205.4,128.6-299.4,126.7-550.8c-1.9-360.8,48-353.2-533.6-74.9c-274.5,130.5-518.2,238-543.2,238c-61.4,0-140.1-82.5-140.1-145.9c0-34.5,99.8-205.4,303.2-512.5c165.1-253.4,299.4-464.5,297.5-472.2c-1.9-5.8-48-28.8-105.6-48c-143.9-53.8-518.2-55.7-667.9-3.8c-297.5,99.8-510.5,282.1-633.4,539.3c-155.5,322.4-155.5,656.4,0,978.9C714.2,4565.4,1188.2,4791.8,1691.1,4701.6z M2155.6,3150.8l218.8-109.4l-71-86.4c-40.3-46.1-82.5-92.1-97.9-99.8c-23-13.4-134.4,138.2-284.1,385.8C1898.4,3279.4,1927.2,3267.9,2155.6,3150.8z M5266.8,3005c470.2-111.3,806.1-541.2,808-1034.5c0-147.8-36.5-357-63.3-357c-11.5,0-232.2,111.3-491.3,245.7c-259.1,134.4-685.2,347.4-946.2,472.2c-403.1,193.9-472.1,232.2-456.8,259.1c9.6,17.3,67.2,82.5,128.6,144c124.8,122.8,353.2,247.6,514.4,276.4C4907.9,3039.5,5130.5,3035.7,5266.8,3005z M3169,2665.2c476-228.4,527.8-257.2,516.3-291.7c-78.7-270.6-82.5-548.9-11.5-779.2c23-69.1,40.3-126.7,40.3-128.6c0-7.7-439.5-236.1-456.8-236.1c-13.4,0-529.7,769.6-877.1,1310.9l-34.5,53.7l115.2,119c63.3,65.3,124.8,138.2,138.2,163.1c11.5,23,26.9,42.2,32.6,42.2C2637.3,2918.6,2879.2,2805.4,3169,2665.2z M4537.4,2012.7c67.2-30.7,119-59.5,115.2-61.4c-3.8-3.8-153.5-82.5-330.1-174.7c-197.7-101.7-330.1-161.2-341.6-149.7c-34.5,34.5-59.5,247.6-48,408.8c17.3,274.5-1.9,262.9,257.2,140.1C4314.8,2118.2,4470.3,2043.4,4537.4,2012.7z M5466.4,1544.4c213-111.3,395.4-209.2,403.1-218.8c9.6-7.7-38.4-67.2-101.7-132.4c-216.9-216.9-525.9-326.3-854.1-303.3c-163.1,11.5-358.9,67.2-357,99.8c5.8,34.5,485.6,758.1,504.8,758.1C5071,1747.8,5255.3,1655.7,5466.4,1544.4z M4422.3,1360.1c-63.3-97.9-122.8-186.2-132.4-195.8c-9.6-9.6-49.9,21.1-94,67.2c-42.2,46.1-71,90.2-63.3,96c21.1,19.2,376.2,209.2,391.5,209.2C4531.7,1536.7,4485.6,1456.1,4422.3,1360.1z M1691.1,1170.1c182.3-32.6,403.1-149.7,541.2-287.9c65.3-65.3,113.2-126.7,105.6-134.4c-9.6-7.7-234.2-128.6-500.9-266.8c-266.8-140.1-493.3-268.7-502.9-287.9c-28.8-53.7-23-126.7,15.3-168.9c17.3-21.1,243.8-147.8,502.9-282.1c259.1-132.4,477.9-249.5,485.6-257.2c21.1-21.1-178.5-218.8-286-282.1c-547-320.5-1251.4-140.1-1531.6,393.5C297.7,18.5,374.5,552.1,704.6,880.3C954.1,1131.7,1316.8,1237.3,1691.1,1170.1z M3990.4,1043.4L4121,903.3l-159.3-249.5c-88.3-136.3-165.1-249.5-170.8-249.5c-13.4,1.9-364.7,533.6-364.7,550.8c0,15.4,403.1,232.2,424.2,228.4C3856.1,1181.6,3919.4,1118.3,3990.4,1043.4z M6679.4,911c295.6-153.5,543.2-286,550.8-291.7c7.7-7.7-3.8-71-26.9-138.2c-59.5-176.6-59.5-548.9,0-729.3c23-67.2,34.5-130.5,26.9-136.3c-7.7-7.7-253.3-138.2-547-291.7l-533.6-278.3l-176.6,178.5c-195.8,195.8-347.4,291.7-585.4,370.4c-126.7,42.2-182.3,48-387.7,49.9c-222.6,0-253.4-5.8-412.7-61.4c-94-34.6-182.3-65.3-195.8-67.2c-21.1-3.8-408.8,564.3-408.8,600.7s387.7,604.6,408.8,600.7c13.4-1.9,101.7-32.6,195.8-67.2c161.2-57.6,188.1-61.4,412.7-61.4c205.4,1.9,261,9.6,393.5,51.8c232.2,76.8,381.9,172.7,575.8,370.4c96,97.9,172.7,176.6,172.7,178.5C6142,1191.2,6383.8,1064.5,6679.4,911z M8798.3,1162.4c472.1-111.3,806.1-541.3,808-1038.3c0-180.4-34.5-330.1-115.2-500.9c-309-641.1-1214.9-783.1-1729.3-268.7c-63.3,63.3-109.4,119-103.6,126.7c5.8,5.8,232.2,128.6,504.8,270.6c529.7,280.2,552.8,297.5,510.6,418.4c-15.4,44.2-97.9,94.1-510.6,310.9c-270.6,142-499,264.9-504.8,270.6c-5.8,7.7,40.3,63.3,103.6,126.7c128.6,128.6,326.3,241.8,493.3,282.1C8404.9,1197,8646.7,1197,8798.3,1162.4z M3370.5,477.2c119-182.3,216.9-345.5,216.9-360.8c0-36.5-428-690.9-453-690.9c-9.6,0-99.8,44.1-199.6,97.9c-128.6,69.1-180.4,107.5-172.7,126.7c61.4,155.5,76.8,262.9,76.8,476c-1.9,180.4-11.5,257.2-42.2,355.1c-23,67.2-36.5,126.7-30.7,132.4c21.1,23,345.5,193.9,364.7,193.9C3144,807.3,3251.5,657.6,3370.5,477.2z M2522.2,341c34.6-203.5,15.4-506.7-34.5-556.6c-17.3-17.3-673.7,309-673.7,332c0,13.4,637.2,345.5,664.1,345.5C2491.5,461.9,2510.6,408.1,2522.2,341z M7861.7,294.9c178.5-94,324.4-172.7,324.4-178.5c0-13.4-641.1-345.5-666-345.5c-28.8,0-63.3,195.8-63.3,345.5c0,151.6,36.5,345.5,63.3,345.5C7529.6,461.9,7685.1,387,7861.7,294.9z M3959.7-421L4121-670.5l-132.4-142L3858-952.7l-215,107.5c-119,57.6-216.9,113.3-216.9,120.9c0,19.2,351.2,550.8,364.7,552.8C3796.6-171.5,3873.4-284.7,3959.7-421z M5255.3-680.1c180.4-38.4,378.1-147.8,516.3-284.1c61.4-63.3,107.5-120.9,97.9-128.6c-34.5-32.6-796.5-424.2-813.8-418.4c-36.4,11.5-512.4,754.3-495.2,771.5c32.6,34.6,278.3,86.4,420.3,86.4C5059.5-653.3,5182.3-664.8,5255.3-680.1z M4418.5-1117.7c65.3-101.7,115.2-186.2,107.5-186.2c-5.8,0-101.7,48-211.1,107.5l-197.7,105.6l69.1,86.4c38.4,48,80.6,82.5,90.2,78.7C4287.9-929.6,4351.3-1016,4418.5-1117.7z M3497.2-1113.9c155.5-82.5,216.9-124.8,209.2-144c-86.4-226.5-107.5-593.1-44.2-802.3c19.2-61.4,30.7-115.2,26.9-119c-3.8-3.8-243.8-120.9-531.7-259.1l-522.1-249.5l-30.7,44.1c-17.3,24.9-82.5,97.9-144,163.1l-115.2,120.9l48,71c658.3,1007.6,848.3,1291.7,863.7,1291.7C3268.8-996.8,3376.3-1048.6,3497.2-1113.9z M4330.2-1547.6c176.6-92.1,318.6-170.8,314.8-174.6c-3.8-3.8-155.5-78.7-339.7-167c-383.9-184.3-357-190-374.3,88.3c-11.5,174.7,21.1,420.3,57.6,420.3C3998.1-1380.7,4153.6-1455.5,4330.2-1547.6z M6055.6-1518.9c61.4-362.8-48-733.2-287.9-975c-239.9-238-614.2-351.2-971.2-289.8c-188.1,32.6-418.4,149.7-550.8,278.3c-184.3,182.3-215,145.9,347.4,416.5c270.6,130.5,696.7,341.6,944.3,472.2c247.6,128.6,460.6,236.1,474.1,236.1C6023-1380.7,6042.2-1440.2,6055.6-1518.9z M1813.9-2392.1c57.6-21.1,103.6-46.1,99.8-55.7c-1.9-9.6-138.2-220.7-301.3-470.2c-197.7-301.3-297.5-470.2-297.5-504.8c0-63.3,78.7-145.9,140.1-145.9c25,0,268.7,107.5,543.2,238c570,274.5,520.1,274.5,539.3,0c46.1-648.7-429.9-1161.2-1076.7-1159.3C860-4488,393.7-4017.8,393.7-3415.1c0,184.2,30.7,310.9,117.1,493.3c128.6,270.6,385.8,477.9,692.9,554.7C1349.5-2330.7,1679.6-2344.2,1813.9-2392.1z M2293.8-2708.8l78.7-99.8l-168.9-86.4c-238-119-301.3-143.9-282.1-113.2c101.7,168.9,261,399.2,274.5,399.2C2205.5-2609,2249.6-2653.2,2293.8-2708.8z"/></g></g>
</svg>